<svg xmlns="http://www.w3.org/2000/svg" width="38.034" height="40.751" viewBox="0 0 38.034 40.751">
    <path d="M33.546 28.15h14.942a1.358 1.358 0 0 0 1.358-1.358v-2.717A4.075 4.075 0 0 0 45.771 20h-9.508a4.075 4.075 0 0 0-4.075 4.075v2.717a1.358 1.358 0 0 0 1.358 1.358zm22.413-4.75H54.6a.638.638 0 0 0-.679.679v2.717a5.433 5.433 0 0 1-5.433 5.433H33.546a5.433 5.433 0 0 1-5.433-5.433v-2.721a.638.638 0 0 0-.679-.679h-1.359A4.075 4.075 0 0 0 22 27.471v29.2a4.075 4.075 0 0 0 4.075 4.075h29.884a4.075 4.075 0 0 0 4.075-4.075v-29.2a4.075 4.075 0 0 0-4.075-4.071zM33.546 52.6a1.358 1.358 0 0 1-1.358 1.358h-1.359a1.358 1.358 0 0 1-1.358-1.358v-1.358a1.358 1.358 0 0 1 1.358-1.358h1.358a1.358 1.358 0 0 1 1.358 1.358zm0-6.792a1.358 1.358 0 0 1-1.358 1.358h-1.359a1.358 1.358 0 0 1-1.358-1.358v-1.357a1.358 1.358 0 0 1 1.358-1.358h1.358a1.358 1.358 0 0 1 1.358 1.358zm0-6.792a1.358 1.358 0 0 1-1.358 1.358h-1.359a1.358 1.358 0 0 1-1.358-1.358v-1.357a1.358 1.358 0 0 1 1.358-1.359h1.358a1.358 1.358 0 0 1 1.358 1.358zM52.563 52.6a1.358 1.358 0 0 1-1.363 1.359H37.621a1.358 1.358 0 0 1-1.358-1.359v-1.358a1.358 1.358 0 0 1 1.358-1.358H51.2a1.358 1.358 0 0 1 1.358 1.358zm0-6.792a1.358 1.358 0 0 1-1.363 1.359H37.621a1.358 1.358 0 0 1-1.358-1.358v-1.358a1.358 1.358 0 0 1 1.358-1.358H51.2a1.358 1.358 0 0 1 1.358 1.358zm0-6.792a1.358 1.358 0 0 1-1.363 1.359H37.621a1.358 1.358 0 0 1-1.358-1.358v-1.358a1.358 1.358 0 0 1 1.358-1.359H51.2a1.358 1.358 0 0 1 1.358 1.358z" transform="translate(-22 -20)" style="fill:#aac2c1"/>
</svg>
